# xmcd CD database file
#
# Track frame offsets:
#	150
#	31102
#	49456
#	65388
#	96981
#	127672
#	146466
#	185555
#
# Disc length: 2863 seconds
#
# Revision: 0
# Processed by: cddbd v1.4PL0 Copyright (c) Steve Scherf et al.
# Submitted via: CDex 1.40Beta9
#
DISCID=6a0b2d08
DTITLE=Rolf Wikström - 2 kvällar på Fasching
DYEAR=2002
DGENRE=Blues
TTITLE0=Mississippi
TTITLE1=En helvetes vacker kvinna
TTITLE2=Jag kan inte lämna dej
TTITLE3=Blås ut mitt månljus
TTITLE4=Du är så jävla vacker
TTITLE5=Allt är gjort av plåt
TTITLE6=Sommarfräscha kvinna
TTITLE7=Don't lose you cool
EXTD=YEAR: 2002 ID3G: 0
EXTT0=
EXTT1=
EXTT2=
EXTT3=
EXTT4=
EXTT5=
EXTT6=
EXTT7=
PLAYORDER=
